<svg width="200" height="200" xmlns="http://www.w3.org/2000/svg" style="vector-effect: non-scaling-stroke;" stroke="null">

 <g stroke="null">
  <title stroke="null">background</title>
  <rect stroke="null" fill="none" id="canvas_background" height="402" width="582" y="-1" x="-1"/>
 </g>
 <g stroke="null">
  <title stroke="null">Layer 1</title>
  <path transform="rotate(6 81.67516326904286,98.56323242187501) " stroke="null" id="svg_4" fill="#FFFFFF" d="m99.539662,133.00123c0,5.334 -0.921,9.498 -2.773,12.446c-3.396,5.409 -8.313,8.116 -14.773,8.116c-5.871,0 -10.43,-1.982 -13.651,-5.953c-3.021,-3.664 -4.532,-8.503 -4.532,-14.543l0,-69.484c0,-5.716 1.526,-10.428 4.607,-14.13c3.222,-3.924 7.669,-5.89 13.342,-5.89c5.391,0 9.899,1.966 13.495,5.89c2.005,2.155 3.29,4.359 3.812,6.581c0.314,1.373 0.471,3.944 0.471,7.706l0.002,69.261z"/>
  <path stroke="null" opacity="0.6" transform="rotate(-122 110.12315368652345,116.09179687500001) " id="svg_7" fill="#FFFFFF" d="m127.987653,150.529791c0,5.334 -0.921,9.498 -2.773,12.446c-3.396,5.409 -8.313,8.116 -14.773,8.116c-5.871,0 -10.43,-1.982 -13.651,-5.953c-3.021,-3.664 -4.532,-8.503 -4.532,-14.543l0,-69.484c0,-5.716 1.526,-10.428 4.607,-14.13c3.222,-3.924 7.669,-5.89 13.342,-5.89c5.391,0 9.899,1.966 13.495,5.89c2.005,2.155 3.29,4.359 3.812,6.581c0.314,1.373 0.471,3.944 0.471,7.706l0.002,69.261z"/>
  <path stroke="null" opacity="0.8" transform="rotate(147 106.67492675781251,92.81616210937501) " id="svg_8" fill="#FFFFFF" d="m124.539414,127.254158c0,5.334 -0.921,9.498 -2.773,12.446c-3.396,5.409 -8.313,8.116 -14.773,8.116c-5.871,0 -10.43,-1.982 -13.651,-5.953c-3.021,-3.664 -4.532,-8.503 -4.532,-14.543l0,-69.484c0,-5.716 1.526,-10.428 4.607,-14.13c3.222,-3.924 7.669,-5.89 13.342,-5.89c5.391,0 9.899,1.966 13.495,5.89c2.005,2.155 3.29,4.359 3.812,6.581c0.314,1.373 0.471,3.944 0.471,7.706l0.002,69.261z"/>
 </g>
</svg>